<mxfile host="app.diagrams.net" agent="Mozilla/5.0 (Windows NT 10.0; Win64; x64) AppleWebKit/537.36 (KHTML, like Gecko) Chrome/134.0.0.0 Safari/537.36" version="26.1.1">
  <diagram name="PÃ¡gina-1" id="wmgHpaY7hJ3ayOFzJIII">
    <mxGraphModel dx="1434" dy="790" grid="1" gridSize="10" guides="1" tooltips="1" connect="1" arrows="1" fold="1" page="1" pageScale="1" pageWidth="827" pageHeight="1169" math="0" shadow="0">
      <root>
        <mxCell id="0" />
        <mxCell id="1" parent="0" />
        <mxCell id="I68rIZlnVqbQGTv8kSVT-7" style="edgeStyle=orthogonalEdgeStyle;rounded=0;orthogonalLoop=1;jettySize=auto;html=1;entryX=0.5;entryY=0;entryDx=0;entryDy=0;" edge="1" parent="1" source="I68rIZlnVqbQGTv8kSVT-1" target="I68rIZlnVqbQGTv8kSVT-3">
          <mxGeometry relative="1" as="geometry" />
        </mxCell>
        <mxCell id="I68rIZlnVqbQGTv8kSVT-1" value="inico" style="ellipse;whiteSpace=wrap;html=1;" vertex="1" parent="1">
          <mxGeometry x="354" y="10" width="120" height="80" as="geometry" />
        </mxCell>
        <mxCell id="I68rIZlnVqbQGTv8kSVT-8" style="edgeStyle=orthogonalEdgeStyle;rounded=0;orthogonalLoop=1;jettySize=auto;html=1;entryX=0.5;entryY=0;entryDx=0;entryDy=0;" edge="1" parent="1" source="I68rIZlnVqbQGTv8kSVT-3" target="I68rIZlnVqbQGTv8kSVT-4">
          <mxGeometry relative="1" as="geometry" />
        </mxCell>
        <mxCell id="I68rIZlnVqbQGTv8kSVT-3" value="cotacao, valoresreais" style="shape=parallelogram;perimeter=parallelogramPerimeter;whiteSpace=wrap;html=1;fixedSize=1;" vertex="1" parent="1">
          <mxGeometry x="341" y="140" width="146" height="60" as="geometry" />
        </mxCell>
        <mxCell id="I68rIZlnVqbQGTv8kSVT-9" style="edgeStyle=orthogonalEdgeStyle;rounded=0;orthogonalLoop=1;jettySize=auto;html=1;entryX=0.5;entryY=0;entryDx=0;entryDy=0;" edge="1" parent="1" source="I68rIZlnVqbQGTv8kSVT-4" target="I68rIZlnVqbQGTv8kSVT-5">
          <mxGeometry relative="1" as="geometry" />
        </mxCell>
        <mxCell id="I68rIZlnVqbQGTv8kSVT-4" value="resultado = (valoresreais/cotacao)" style="rounded=0;whiteSpace=wrap;html=1;" vertex="1" parent="1">
          <mxGeometry x="301" y="250" width="226" height="60" as="geometry" />
        </mxCell>
        <mxCell id="I68rIZlnVqbQGTv8kSVT-10" value="" style="edgeStyle=orthogonalEdgeStyle;rounded=0;orthogonalLoop=1;jettySize=auto;html=1;" edge="1" parent="1" source="I68rIZlnVqbQGTv8kSVT-5" target="I68rIZlnVqbQGTv8kSVT-6">
          <mxGeometry relative="1" as="geometry" />
        </mxCell>
        <mxCell id="I68rIZlnVqbQGTv8kSVT-5" value="resultado" style="shape=document;whiteSpace=wrap;html=1;boundedLbl=1;" vertex="1" parent="1">
          <mxGeometry x="350" y="370" width="120" height="80" as="geometry" />
        </mxCell>
        <mxCell id="I68rIZlnVqbQGTv8kSVT-6" value="fim" style="ellipse;whiteSpace=wrap;html=1;aspect=fixed;" vertex="1" parent="1">
          <mxGeometry x="374" y="505" width="80" height="80" as="geometry" />
        </mxCell>
      </root>
    </mxGraphModel>
  </diagram>
</mxfile>
